<svg width="153" height="26" viewBox="0 0 153 26" fill="none" xmlns="http://www.w3.org/2000/svg">
<path fill-rule="evenodd" clip-rule="evenodd" d="M44.5598 25V19.656L46.4798 17.544L50.9278 25H56.3678L50.0638 14.568L56.3998 7.528H50.4798L44.5598 13.832V0.776001H39.7598V25H44.5598ZM63.9198 25.384C66.0958 25.384 67.8451 24.712 69.1678 23.368V25H73.6478V13.48C73.6478 12.2213 73.3331 11.1173 72.7038 10.168C72.0744 9.21867 71.1944 8.47733 70.0638 7.944C68.9331 7.41067 67.6318 7.144 66.1598 7.144C64.3038 7.144 62.6771 7.57067 61.2798 8.424C59.8824 9.27733 58.9278 10.4293 58.4158 11.88L62.2558 13.704C62.5544 12.936 63.0291 12.3173 63.6798 11.848C64.3304 11.3787 65.0824 11.144 65.9358 11.144C66.8318 11.144 67.5411 11.368 68.0638 11.816C68.5864 12.264 68.8478 12.8187 68.8478 13.48V13.96L64.0158 14.728C61.9251 15.0693 60.3678 15.72 59.3438 16.68C58.3198 17.64 57.8078 18.856 57.8078 20.328C57.8078 21.9067 58.3571 23.144 59.4558 24.04C60.5544 24.936 62.0424 25.384 63.9198 25.384ZM63.3758 21.416C63.7811 21.7147 64.2824 21.864 64.8798 21.864C66.0744 21.864 67.0344 21.4907 67.7598 20.744C68.4851 19.9973 68.8478 19.0907 68.8478 18.024V17.48L64.8798 18.184C64.1971 18.312 63.6744 18.5307 63.3118 18.84C62.9491 19.1493 62.7678 19.592 62.7678 20.168C62.7678 20.7013 62.9704 21.1173 63.3758 21.416ZM81.9678 25V14.792C81.9678 13.7893 82.2664 12.984 82.8638 12.376C83.4611 11.768 84.2291 11.464 85.1678 11.464C86.1064 11.464 86.8744 11.768 87.4718 12.376C88.0691 12.984 88.3678 13.7893 88.3678 14.792V25H93.1678V13.768C93.1678 12.4453 92.8904 11.288 92.3358 10.296C91.7811 9.304 91.0078 8.53067 90.0158 7.976C89.0238 7.42133 87.8664 7.144 86.5438 7.144C85.4344 7.144 84.4531 7.352 83.5998 7.768C82.7464 8.184 82.0958 8.81867 81.6478 9.672V7.528H77.1678V25H81.9678ZM110.704 24.168C109.36 24.9787 107.834 25.384 106.128 25.384C105.061 25.384 104.064 25.208 103.136 24.856C102.208 24.504 101.434 23.9973 100.816 23.336V25H96.3358V0.776001H101.136V9C102.373 7.76267 104.048 7.144 106.16 7.144C107.824 7.144 109.328 7.54933 110.672 8.36C112.016 9.17067 113.082 10.264 113.872 11.64C114.661 13.016 115.056 14.5573 115.056 16.264C115.056 17.9493 114.666 19.4853 113.888 20.872C113.109 22.2587 112.048 23.3573 110.704 24.168ZM105.552 21.064C104.25 21.064 103.189 20.6213 102.368 19.736C101.546 18.8507 101.136 17.6933 101.136 16.264C101.136 14.856 101.546 13.704 102.368 12.808C103.189 11.912 104.25 11.464 105.552 11.464C106.874 11.464 107.962 11.9173 108.816 12.824C109.669 13.7307 110.096 14.8773 110.096 16.264C110.096 17.672 109.669 18.824 108.816 19.72C107.962 20.616 106.874 21.064 105.552 21.064ZM128.528 23.368C127.205 24.712 125.456 25.384 123.28 25.384C121.402 25.384 119.914 24.936 118.816 24.04C117.717 23.144 117.168 21.9067 117.168 20.328C117.168 18.856 117.68 17.64 118.704 16.68C119.728 15.72 121.285 15.0693 123.376 14.728L128.208 13.96V13.48C128.208 12.8187 127.946 12.264 127.424 11.816C126.901 11.368 126.192 11.144 125.296 11.144C124.442 11.144 123.69 11.3787 123.04 11.848C122.389 12.3173 121.914 12.936 121.616 13.704L117.776 11.88C118.288 10.4293 119.242 9.27733 120.64 8.424C122.037 7.57067 123.664 7.144 125.52 7.144C126.992 7.144 128.293 7.41067 129.424 7.944C130.554 8.47733 131.434 9.21867 132.064 10.168C132.693 11.1173 133.008 12.2213 133.008 13.48V25H128.528V23.368ZM124.24 21.864C123.642 21.864 123.141 21.7147 122.736 21.416C122.33 21.1173 122.128 20.7013 122.128 20.168C122.128 19.592 122.309 19.1493 122.672 18.84C123.034 18.5307 123.557 18.312 124.24 18.184L128.208 17.48V18.024C128.208 19.0907 127.845 19.9973 127.12 20.744C126.394 21.4907 125.434 21.864 124.24 21.864ZM141.328 14.792V25H136.528V7.528H141.008V9.672C141.456 8.81867 142.106 8.184 142.96 7.768C143.813 7.352 144.794 7.144 145.904 7.144C147.226 7.144 148.384 7.42133 149.376 7.976C150.368 8.53067 151.141 9.304 151.696 10.296C152.25 11.288 152.528 12.4453 152.528 13.768V25H147.728V14.792C147.728 13.7893 147.429 12.984 146.832 12.376C146.234 11.768 145.466 11.464 144.528 11.464C143.589 11.464 142.821 11.768 142.224 12.376C141.626 12.984 141.328 13.7893 141.328 14.792Z" fill="white"/>
<rect y="1" width="6" height="25" rx="2" fill="#635FC7"/>
<rect opacity="0.75" x="9" y="1" width="6" height="25" rx="2" fill="#635FC7"/>
<rect opacity="0.5" x="18" y="1" width="6" height="25" rx="2" fill="#635FC7"/>
</svg>
